<svg version="1.0" xmlns="http://www.w3.org/2000/svg"
     width="260.000000pt" height="260.000000pt" viewBox="0 0 260.000000 260.000000"
     preserveAspectRatio="xMidYMid meet">
  <style>
    path { fill: white; }
    @media (prefers-color-scheme: light) {
      path { fill: black; }
    }
  </style>
  <g transform="translate(0.000000,260.000000) scale(0.100000,-0.100000)"
     fill="#000000" stroke="none">
    <path d="M1270 2389 c-39 -40 -66 -93 -86 -170 -25 -99 -1 -203 67 -290 28
-36 29 -39 29 -164 l0 -128 -52 49 c-44 40 -55 58 -63 99 -6 28 -19 67 -29 87
-27 55 -104 122 -169 147 -60 22 -151 28 -162 11 -10 -16 15 -120 40 -170 49
-95 156 -169 246 -170 52 0 69 -14 138 -114 l41 -59 0 -151 -1 -151 -19 26
c-10 14 -53 54 -95 89 -41 34 -75 70 -75 79 0 27 -56 116 -95 149 -83 73 -207
111 -326 98 -97 -11 -98 -13 -60 -91 40 -82 136 -181 206 -215 42 -21 66 -25
147 -25 94 -1 99 -2 129 -30 48 -46 126 -162 148 -219 25 -68 41 -184 41 -302
0 -85 -8 -112 -25 -84 -13 21 -141 84 -225 111 -49 16 -129 36 -177 44 -96 17
-424 32 -466 21 -21 -5 -47 -41 -132 -184 l-106 -177 3 -63 c3 -61 3 -62 -23
-62 -39 0 -65 -34 -53 -68 l9 -27 522 -5 522 -5 46 -45 46 -45 104 -3 104 -4
43 40 c24 21 53 44 65 51 15 8 165 11 517 11 l496 0 16 25 c15 23 15 27 0 49
-9 14 -27 26 -43 28 -27 3 -28 5 -33 78 -5 73 -7 79 -94 225 -50 83 -96 158
-104 168 -13 14 -33 17 -139 17 -289 0 -537 -55 -711 -159 -29 -17 -55 -31
-58 -31 -3 0 -4 78 -2 173 3 138 8 181 23 217 28 69 81 148 141 211 l55 57 42
-10 c56 -13 135 -4 192 21 65 29 164 132 204 211 30 61 31 65 14 78 -30 22
-214 11 -288 -18 -77 -30 -163 -114 -191 -186 -15 -41 -36 -66 -105 -127 l-86
-76 -7 61 c-3 34 -6 100 -6 149 0 85 1 89 36 136 73 97 104 123 149 123 129 0
275 161 275 302 l0 41 -67 -5 c-146 -11 -268 -116 -289 -249 -5 -32 -20 -56
-60 -100 l-52 -57 -7 129 -7 128 26 32 c109 129 103 349 -12 472 -33 35 -43
34 -82 -4z m916 -1620 c12 -9 134 -205 134 -214 0 -3 -51 -5 -112 -5 -140 0
-268 -13 -401 -41 -164 -34 -226 -57 -429 -157 -5 -2 -8 46 -8 106 l0 110 38
30 c125 98 325 167 532 181 109 8 230 3 246 -10z m-1271 -19 c106 -28 248 -98
308 -150 l47 -42 0 -100 c0 -76 -3 -99 -12 -95 -272 120 -469 164 -815 184
l-132 8 55 90 c93 150 68 138 284 132 146 -4 202 -10 265 -27z"/>
  </g>
</svg>
